<?xml version="1.0" encoding="iso-8859-1"?>
<!-- Generator: Adobe Illustrator 19.0.0, SVG Export Plug-In . SVG Version: 6.00 Build 0)  -->
<svg version="1.1" id="Capa_1" xmlns="http://www.w3.org/2000/svg" xmlns:xlink="http://www.w3.org/1999/xlink" x="0px" y="0px"
	 viewBox="0 0 360.49 360.49" style="enable-background:new 0 0 360.49 360.49;" xml:space="preserve">
<g>
	<path style="fill:#808080;" d="M13.061,0h83.592c5.771,0,10.449,4.678,10.449,10.449v83.592c0,5.771-4.678,10.449-10.449,10.449
		H13.061c-5.771,0-10.449-4.678-10.449-10.449V10.449C2.612,4.678,7.29,0,13.061,0z"/>
	<path style="fill:#808080;" d="M138.449,0h83.592c5.771,0,10.449,4.678,10.449,10.449v83.592c0,5.771-4.678,10.449-10.449,10.449
		h-83.592c-5.771,0-10.449-4.678-10.449-10.449V10.449C128,4.678,132.678,0,138.449,0z"/>
	<path style="fill:#808080;" d="M13.061,125.388h83.592c5.771,0,10.449,4.678,10.449,10.449v83.592
		c0,5.771-4.678,10.449-10.449,10.449H13.061c-5.771,0-10.449-4.678-10.449-10.449v-83.592
		C2.612,130.066,7.29,125.388,13.061,125.388z"/>
	<path style="fill:#808080;" d="M138.449,125.388h83.592c5.771,0,10.449,4.678,10.449,10.449v83.592
		c0,5.771-4.678,10.449-10.449,10.449h-83.592c-5.771,0-10.449-4.678-10.449-10.449v-83.592
		C128,130.066,132.678,125.388,138.449,125.388z"/>
	<path style="fill:#808080;" d="M263.837,0h83.592c5.771,0,10.449,4.678,10.449,10.449v83.592c0,5.771-4.678,10.449-10.449,10.449
		h-83.592c-5.771,0-10.449-4.678-10.449-10.449V10.449C253.388,4.678,258.066,0,263.837,0z"/>
	<path style="fill:#808080;" d="M263.837,125.388h83.592c5.771,0,10.449,4.678,10.449,10.449v83.592
		c0,5.771-4.678,10.449-10.449,10.449h-83.592c-5.771,0-10.449-4.678-10.449-10.449v-83.592
		C253.388,130.066,258.066,125.388,263.837,125.388z"/>
	<path style="fill:#808080;" d="M13.061,256h83.592c5.771,0,10.449,4.678,10.449,10.449v83.592c0,5.771-4.678,10.449-10.449,10.449
		H13.061c-5.771,0-10.449-4.678-10.449-10.449v-83.592C2.612,260.678,7.29,256,13.061,256z"/>
	<path style="fill:#808080;" d="M138.449,256h83.592c5.771,0,10.449,4.678,10.449,10.449v83.592c0,5.771-4.678,10.449-10.449,10.449
		h-83.592c-5.771,0-10.449-4.678-10.449-10.449v-83.592C128,260.678,132.678,256,138.449,256z"/>
	<path style="fill:#808080;" d="M263.837,256h83.592c5.771,0,10.449,4.678,10.449,10.449v83.592c0,5.771-4.678,10.449-10.449,10.449
		h-83.592c-5.771,0-10.449-4.678-10.449-10.449v-83.592C253.388,260.678,258.066,256,263.837,256z"/>
</g>
<g>
</g>
<g>
</g>
<g>
</g>
<g>
</g>
<g>
</g>
<g>
</g>
<g>
</g>
<g>
</g>
<g>
</g>
<g>
</g>
<g>
</g>
<g>
</g>
<g>
</g>
<g>
</g>
<g>
</g>
</svg>
